#!OML:ASF G:\JayActor3\Patient Classification 1\Patient 1\Session 5\male.ASF
:FULLY-SPECIFIED
:DEGREES
646
root 27.2865 15.8599 -5.65484 152.952 89.1622 131.191
lowerback 25.9085 -0.53097 1.76623
upperback 6.27046 0.192238 -0.825519
thorax -7.40942 0.26818 -2.0116
lowerneck 4.07714 -1.55843 0.373616
upperneck -11.1291 -1.66884 2.82207
head -4.3702 -0.933391 0.964352
rclavicle 1.60022e-014 2.41523e-014
rhumerus -33.3483 -0.415818 -88.6349
rradius 30.6591
rwrist -0.377713
rhand -22.6148 -7.3178
rfingers 7.12502
rthumb 3.81509 -37.2634
lclavicle 1.60022e-014 2.41523e-014
lhumerus -34.9219 -0.567543 87.9735
lradius 26.9111
lwrist 22.3453
lhand -17.8725 10.1501
lfingers 7.12502
lthumb 8.3934 39.9634
rfemur -31.8833 -0.988674 19.3669
rtibia 75.1445
rfoot -14.9872 -0.226332
rtoes -5.86838
lfemur -51.4127 3.16179 -30.076
ltibia 44.3838
lfoot -12.0107 0.434677
ltoes 8.21913
647
root 27.4211 15.8844 -5.66186 153.364 89.1516 131.422
lowerback 25.8134 -0.576364 1.8131
upperback 6.24741 0.140983 -0.823848
thorax -7.38958 0.241676 -2.01968
lowerneck 4.07306 -1.53222 0.360147
upperneck -11.1244 -1.63735 2.79821
head -4.36817 -0.916059 0.956998
rclavicle -3.77691e-015 -8.05078e-015
rhumerus -33.3033 -0.287674 -88.7204
rradius 30.7241
rwrist -0.543313
rhand -22.4488 -7.29328
rfingers 7.12502
rthumb 3.97534 -37.2359
lclavicle -3.77691e-015 -8.05078e-015
lhumerus -34.957 -0.549028 87.8993
lradius 26.8994
lwrist 22.4443
lhand -17.9532 10.0838
lfingers 7.12502
lthumb 8.31548 39.9001
rfemur -33.3303 -1.04728 19.2308
rtibia 75.8454
rfoot -15.414 -0.621527
rtoes -6.35303
lfemur -50.9912 3.31243 -30.1293
ltibia 44.2423
lfoot -12.3006 0.250207
ltoes 8.08155
648
root 27.5549 15.9073 -5.66752 155.452 89.1144 133.344
lowerback 25.7143 -0.634254 1.86936
upperback 6.23363 0.0776711 -0.813504
thorax -7.35805 0.209957 -2.01985
lowerneck 4.06488 -1.5116 0.350262
upperneck -11.1101 -1.61433 2.76813
head -4.36176 -0.902782 0.947141
rclavicle 1.33186e-014 2.3059e-014
rhumerus -33.2708 -0.190441 -88.7894
rradius 30.8161
rwrist -0.798799
rhand -22.2996 -7.28869
rfingers 7.12502
rthumb 4.11947 -37.2286
lclavicle 1.33186e-014 2.3059e-014
lhumerus -34.9758 -0.531529 87.8216
lradius 26.8729
lwrist 22.5423
lhand -18.0413 10.0304
lfingers 7.12502
lthumb 8.23052 39.8501
rfemur -34.7809 -1.11732 19.1258
rtibia 76.443
rfoot -15.8583 -1.08887
rtoes -6.88541
lfemur -50.5512 3.45074 -30.1718
ltibia 44.0975
lfoot -12.5809 0.0481654
ltoes 7.90985
649
root 27.6884 15.9284 -5.67223 157.49 89.0542 135.239
lowerback 25.6139 -0.697436 1.92
upperback 6.23076 0.0071425 -0.801732
thorax -7.31412 0.175579 -2.01306
lowerneck 4.05146 -1.49521 0.335227
upperneck -11.0848 -1.5976 2.74161
head -4.35016 -0.892561 0.939495
rclavicle 2.13694e-014 1.80397e-014
rhumerus -33.249 -0.128986 -88.8396
rradius 30.9262
rwrist -1.10916
rhand -22.1466 -7.31075
rfingers 7.12502
rthumb 4.26718 -37.2478
lclavicle 2.13694e-014 1.80397e-014
lhumerus -34.9725 -0.500936 87.7348
lradius 26.8234
lwrist 22.6022
lhand -18.0943 9.96663
lfingers 7.12502
lthumb 8.17929 39.7883
rfemur -36.2278 -1.19087 19.0272
rtibia 76.9408
rfoot -16.3061 -1.59174
rtoes -7.41096
lfemur -50.0835 3.58021 -30.2211
ltibia 43.9485
lfoot -12.8659 -0.154203
ltoes 7.75017
650
root 27.8216 15.9475 -5.67652 158.542 88.9835 136.174
lowerback 25.5221 -0.761037 1.96021
upperback 6.23704 -0.0659792 -0.794377
thorax -7.26448 0.140654 -2.00456
lowerneck 4.03298 -1.48084 0.306915
upperneck -11.0505 -1.58369 2.72775
head -4.33403 -0.883751 0.938428
rclavicle -1.27222e-014 -1.635e-014
rhumerus -33.2388 -0.0917762 -88.8758
rradius 31.0434
rwrist -1.44237
rhand -22.0079 -7.34847
rfingers 7.12502
rthumb 4.40118 -37.2827
lclavicle -1.27222e-014 -1.635e-014
lhumerus -34.9536 -0.462701 87.6392
lradius 26.7539
lwrist 22.6116
lhand -18.1346 9.91112
lfingers 7.12502
lthumb 8.1404 39.7343
rfemur -37.6693 -1.25737 18.9211
rtibia 77.3428
rfoot -16.7399 -2.10705
rtoes -7.8647
lfemur -49.5835 3.70108 -30.28
ltibia 43.7945
lfoot -13.1566 -0.335467
ltoes 7.60868
651
root 27.9545 15.9649 -5.68086 158.196 88.9116 135.739
lowerback 25.4426 -0.821339 1.98498
upperback 6.25231 -0.138431 -0.795293
thorax -7.21113 0.106751 -1.99674
lowerneck 4.0196 -1.46732 0.278318
upperneck -11.0213 -1.57076 2.71354
head -4.3208 -0.875457 0.937489
rclavicle 1.8487e-014 4.75592e-014
rhumerus -33.2353 -0.0750273 -88.8989
rradius 31.1557
rwrist -1.75448
rhand -21.891 -7.40262
rfingers 7.12502
rthumb 4.514 -37.3345
lclavicle 1.8487e-014 4.75592e-014
lhumerus -34.9205 -0.409703 87.5346
lradius 26.6635
lwrist 22.5507
lhand -18.1561 9.85045
lfingers 7.12502
lthumb 8.11968 39.6745
rfemur -39.1048 -1.31142 18.7958
rtibia 77.6519
rfoot -17.1495 -2.60091
rtoes -8.2164
lfemur -49.0481 3.80972 -30.3495
ltibia 43.6359
lfoot -13.4596 -0.477643
ltoes 7.44816
652
root 28.087 15.9804 -5.68533 156.366 88.8453 133.847
lowerback 25.3796 -0.874238 1.98894
upperback 6.27545 -0.206391 -0.806261
thorax -7.15708 0.0756668 -1.98963
lowerneck 4.00799 -1.45286 0.253379
upperneck -10.9988 -1.55618 2.69698
head -4.31045 -0.866391 0.935156
rclavicle 1.25731e-014 7.95139e-015
rhumerus -33.235 -0.0765144 -88.9095
rradius 31.2591
rwrist -2.02594
rhand -21.78 -7.47239
rfingers 7.12502
rthumb 4.62119 -37.402
lclavicle 1.25731e-014 7.95139e-015
lhumerus -34.8817 -0.354342 87.4257
lradius 26.5674
lwrist 22.4313
lhand -18.1735 9.77282
lfingers 7.12502
lthumb 8.10291 39.5975
rfemur -40.5367 -1.34456 18.6459
rtibia 77.8686
rfoot -17.5311 -3.03947
rtoes -8.44502
lfemur -48.4826 3.90305 -30.429
ltibia 43.4761
lfoot -13.7798 -0.562467
ltoes 7.24584
653
root 28.219 15.9937 -5.68979 153.447 88.7862 130.892
lowerback 25.3361 -0.918651 1.97647
upperback 6.3038 -0.267351 -0.826759
thorax -7.10679 0.0483795 -1.98593
lowerneck 4.00645 -1.4398 0.233648
upperneck -10.9918 -1.54264 2.6783
head -4.30775 -0.858035 0.93159
rclavicle 1.14301e-015 2.5345e-015
rhumerus -33.2368 -0.0867365 -88.91
rradius 31.3473
rwrist -2.24689
rhand -21.6708 -7.55926
rfingers 7.12502
rthumb 4.72666 -37.4865
lclavicle 1.14301e-015 2.5345e-015
lhumerus -34.8423 -0.301807 87.3153
lradius 26.473
lwrist 22.267
lhand -18.1947 9.70381
lfingers 7.12502
lthumb 8.08241 39.5293
rfemur -41.9637 -1.35288 18.4761
rtibia 77.996
rfoot -17.9002 -3.393
rtoes -8.56999
lfemur -47.8893 3.97234 -30.507
ltibia 43.3207
lfoot -14.123 -0.584407
ltoes 6.97392
654
root 28.3504 16.0047 -5.69395 149.735 88.7329 127.169
lowerback 25.3124 -0.953997 1.94339
upperback 6.33646 -0.321219 -0.852016
thorax -7.06129 0.024937 -1.97796
lowerneck 4.01438 -1.4268 0.218244
upperneck -11.0013 -1.52851 2.6561
head -4.31298 -0.84947 0.926392
rclavicle 2.41026e-014 3.54334e-014
rhumerus -33.2406 -0.0965089 -88.9
rradius 31.4189
rwrist -2.40246
rhand -21.5685 -7.66207
rfingers 7.12502
rthumb 4.82538 -37.5871
lclavicle 2.41026e-014 3.54334e-014
lhumerus -34.8092 -0.253857 87.2088
lradius 26.3913
lwrist 22.0812
lhand -18.2261 9.642
lfingers 7.12502
lthumb 8.05209 39.4686
rfemur -43.3863 -1.33288 18.2923
rtibia 78.0358
rfoot -18.2503 -3.65018
rtoes -8.66581
lfemur -47.2722 4.01139 -30.5763
ltibia 43.1766
lfoot -14.4986 -0.534996
ltoes 6.6413
655
root 28.4815 16.0133 -5.69744 145.625 88.6849 123.07
lowerback 25.3077 -0.980302 1.89379
upperback 6.3708 -0.366985 -0.87926
thorax -7.02297 0.00562121 -1.96529
lowerneck 4.01975 -1.4148 0.197435
upperneck -11.0109 -1.51548 2.64025
head -4.31764 -0.84149 0.924312
rclavicle 1.19271e-015 5.51627e-015
rhumerus -33.2475 -0.102703 -88.882
rradius 31.465
rwrist -2.48604
rhand -21.465 -7.75797
rfingers 7.12502
rthumb 4.92541 -37.6807
lclavicle 1.19271e-015 5.51627e-015
lhumerus -34.7856 -0.211052 87.1056
lradius 26.3291
lwrist 21.9046
lhand -18.2556 9.60513
lfingers 7.12502
lthumb 8.02364 39.4328
rfemur -44.8038 -1.28346 18.1053
rtibia 77.9887
rfoot -18.5965 -3.8083
rtoes -8.7209
lfemur -46.6375 4.01629 -30.6263
ltibia 43.0496
lfoot -14.9124 -0.427909
ltoes 6.30984
656
root 28.6125 16.0191 -5.7 141.53 88.6424 119.004
lowerback 25.3212 -0.999836 1.83266
upperback 6.40417 -0.406209 -0.904494
thorax -6.99444 -0.0105082 -1.94588
lowerneck 4.03151 -1.40536 0.185339
upperneck -11.0291 -1.50549 2.61877
head -4.32674 -0.835165 0.919137
rclavicle -1.04362e-014 -2.16178e-014
rhumerus -33.2644 -0.0992616 -88.859
rradius 31.4863
rwrist -2.49621
rhand -21.3704 -7.83925
rfingers 7.12502
rthumb 5.0167 -37.7599
lclavicle -1.04362e-014 -2.16178e-014
lhumerus -34.7809 -0.169083 87.0068
lradius 26.2936
lwrist 21.7549
lhand -18.2864 9.58838
lfingers 7.12502
lthumb 7.99393 39.4172
rfemur -46.2097 -1.21008 17.9299
rtibia 77.8532
rfoot -18.9427 -3.89303
rtoes -8.788
lfemur -45.9888 3.98438 -30.6472
ltibia 42.9442
lfoot -15.3636 -0.268014
ltoes 6.04342
